PathFileType	4	(X/Y/Z)	Patient4_TMGait_0pt2_02_left_08.trc.trc
DataRate	CameraRate	NumFrames	NumMarkers	Units	OrigDataRate	OrigDataStartFrame	OrigNumFrames
42.682926829268	42.682926829268	4	33	mm	42.682926829268	18	       141
Frame#	Time	R.Midfoot.Superior			Sacral			L.Shoulder			Chest			R.Shoulder			Neck			R.ASIS			L.ASIS			R.Thigh.Superior			R.Thigh.Lateral			R.Thigh.Inferior			R.Patella			L.Thigh.Superior			L.Thigh.Lateral			L.Thigh.Inferior			L.Patella			L.Shank.Superior			L.Shank.Lateral			L.Shank.Inferior			R.Shank.Superior			R.Shank.Lateral			R.Shank.Inferior			R.Heel			R.Midfoot.Lateral			R.Toe			L.Heel			L.Midfoot.Lateral			L.Midfoot.Superior			L.Toe			L.Elbow			L.Wrist			R.Elbow			R.Wrist			
		X1	Y1	Z1	X2	Y2	Z2	X3	Y3	Z3	X4	Y4	Z4	X5	Y5	Z5	X6	Y6	Z6	X7	Y7	Z7	X8	Y8	Z8	X9	Y9	Z9	X10	Y10	Z10	X11	Y11	Z11	X12	Y12	Z12	X13	Y13	Z13	X14	Y14	Z14	X15	Y15	Z15	X16	Y16	Z16	X17	Y17	Z17	X18	Y18	Z18	X19	Y19	Z19	X20	Y20	Z20	X21	Y21	Z21	X22	Y22	Z22	X23	Y23	Z23	X24	Y24	Z24	X25	Y25	Z25	X26	Y26	Z26	X27	Y27	Z27	X28	Y28	Z28	X29	Y29	Z29	X30	Y30	Z30	X31	Y31	Z31	X32	Y32	Z32	X33	Y33	Z33	

18	18.358285714286	994.275086092909	95.665754674677	600.332636640586	848.976147455216	1004.068494309375	624.818961222695	970.596034029510	1420.808189137502	385.293986643606	1119.051400266438	1350.633258288107	505.018138365954	1104.318927576399	1436.467540685724	691.215787254469	1009.491174791457	1486.277538560911	534.395626905998	1097.902477974874	927.865835396327	671.705975800935	1011.238347810251	959.337542153105	412.030347494765	1116.414974152455	724.793592563880	620.048257667202	1045.971137589489	612.291655494613	689.724290941636	1095.989614158887	564.558441149782	588.097864128325	1092.009744632843	471.277092400409	588.355094266334	1096.194853444262	779.744183440586	426.715483294103	1043.999790285562	649.862255866157	354.204984056574	1152.275406905703	592.376864258712	406.502596016069	1178.567734490121	525.560590017251	397.972289914891	1157.028246018444	452.751334822896	384.403628599657	1079.267728885068	331.075537468578	326.710885597941	1161.337703872025	221.161819533091	369.987067671931	1046.942019543670	386.016341536907	598.701487357760	974.668678170457	290.431322904913	671.953081982607	980.959434041946	196.511385135488	598.150975084771	818.566276067107	45.067254235269	591.520607127377	912.186294732916	36.913403752485	651.872610437567	1116.623457166300	41.506408377896	609.475385119030	1060.505642043981	55.321439824348	403.822713413257	1132.594085760246	47.171699251540	322.760073282666	1216.378741091358	112.445026136353	340.759298442202	1342.712253341963	61.691848230407	312.339616351856	782.679425426873	1115.993061365636	349.349343723938	724.864919879834	870.505877025464	422.179683795315	1305.985693853852	1175.327388896975	809.106675643311	1506.172601752483	1272.258624633617	691.322727462187	
19	18.381714285714	989.576855931955	95.662783142419	600.310091140719	849.126315519966	1004.349577957247	623.170033682422	968.733525857180	1420.951730888462	382.840512971010	1118.184596891304	1350.654764824789	501.260045789295	1105.168729539022	1436.560712366501	687.451650391204	1008.961061777568	1486.358325380127	531.632550734937	1098.168176402781	927.943994924726	668.972561865531	1010.242490816873	959.201502780303	409.574629016432	1114.614940218965	724.210013066838	618.181471869048	1043.383725762451	612.470519456492	688.656950023467	1092.602788830504	563.895777843423	587.169663937572	1087.650257175906	470.814037139543	587.823501068827	1094.049186277222	778.084017170636	423.909032467972	1039.743125460017	648.269421343683	352.445835183564	1147.995070890127	590.392592691526	404.003397279839	1173.543334284306	524.362032384996	396.285673118788	1153.640299056053	452.002453880306	382.763466711921	1078.683788722344	328.541441298856	325.059618025961	1163.091885256416	220.548829245328	368.651109252925	1042.579313855671	385.824935356216	598.366969790445	970.048350894579	290.490202817224	671.721383643327	976.364122884317	196.446299625452	598.049401004702	813.809906836193	45.024453888795	591.520437230371	907.424989268247	36.893595276116	651.885908658408	1111.864150976903	41.533052504574	609.499460386464	1065.329536813950	54.020866018594	402.904183114230	1137.629233983474	45.862615813305	322.083849439042	1220.805596384487	111.688650916399	339.935060955309	1347.432638418626	61.594593872971	312.211588604890	779.464711927503	1117.099386098195	350.859753356509	721.987478724848	872.182118970124	426.536421771995	1312.891240743922	1179.922347840154	800.684500106807	1504.797576936845	1285.920451455637	677.344398709146	
20	18.405142857143	984.901154645079	95.660206341275	600.258756484022	849.385736594689	1004.257871459299	621.050065282584	967.232004566087	1420.639590601845	379.884292827116	1117.482650055306	1350.356319866548	497.295069643056	1105.808104729820	1436.350250823295	683.421566422966	1008.503106944276	1486.108136037199	528.396216257893	1098.579325307797	927.800736529719	666.140495522357	1009.648551910443	958.633050990906	406.926024758507	1113.261028291975	723.483734340481	616.126425583825	1041.323013935201	612.424929077598	687.310039857059	1089.815373674573	563.074806525865	585.958914144604	1083.942397544453	470.100593228253	586.990619842947	1092.555982193894	776.114538812916	421.158375392562	1036.228683919263	646.378070393106	350.843894514766	1144.382982279262	588.123224528721	401.800820189736	1168.961645106227	522.469681529884	394.855891507385	1150.156861045893	450.511018849451	381.322904846375	1076.897177178047	326.065288707123	323.867942567562	1162.629164205900	219.396378555174	367.738941512000	1038.704249102107	385.404950385874	597.770627561367	965.776741739634	290.473660343250	671.289464173278	971.972187291565	196.266596762873	597.826578442730	809.061855095178	44.985428737389	591.501874146427	902.663175307975	36.876173931920	651.881944506761	1107.108101870838	41.555526852009	609.528886573189	1066.647338483939	52.806775499388	402.440925973117	1138.992882100794	44.751685516090	321.690055762652	1221.881805895267	110.591466605641	339.593727596105	1348.512480230849	60.741807161074	312.072388940455	777.318145986167	1117.200672325270	351.396162915277	720.231381559742	872.707236167236	429.342285416224	1318.706166848700	1183.644015540710	792.266337568521	1502.940476971645	1297.199626632748	664.128821266665	
21	18.428571428571	980.244616772083	95.657253427882	600.178701709540	849.766799611451	1003.872535652058	618.498724297595	966.079401452243	1419.942740495214	376.433990646804	1116.968223075652	1349.794417219639	493.098851410468	1106.305096235285	1435.901681374940	679.114162371195	1008.135817297798	1485.585855915394	524.691314099164	1099.150603139720	927.472747716190	663.175200286772	1009.420650265543	957.713650638544	404.076011007095	1112.329551189901	722.629615271661	613.858625361031	1039.749793835836	612.185152308532	685.670933478143	1087.563358311551	562.115763843570	584.446375351200	1080.814232781729	469.169488394606	585.840866475089	1091.669151528688	773.919225923638	418.417587871317	1033.379986643942	644.277407228387	349.358727043596	1141.371735733792	585.648223578071	399.828047546290	1164.802297493778	520.028194261744	393.627491009978	1146.644356230388	448.392793988677	380.055309309765	1074.117765249632	323.579639372071	323.051583715501	1160.318532262163	217.669178972786	367.220702987827	1035.255138561145	384.788511423446	596.903153126014	961.821453334765	290.404160506022	670.657879496004	967.757093796273	195.993652888070	597.482207433328	804.323043016989	44.955420421480	591.465906790740	897.903843429634	36.862537559003	651.860619773681	1102.356522545881	41.573595853869	609.562437717278	1064.985191907876	51.412372067386	402.310416483599	1137.293542496192	43.667533741402	321.508456530019	1220.127029948205	109.136166673748	339.734172937418	1346.610594413179	59.294155194303	312.031441304333	776.126695009851	1116.446056391172	350.844097378293	719.471222681033	872.223265973790	430.443624201234	1323.508167458932	1186.508770333733	783.939047613884	1500.947328963077	1306.139942701307	651.787776698816	
